<svg width="1728" height="988" viewBox="0 0 1728 988" fill="none" xmlns="http://www.w3.org/2000/svg">
<path d="M793.754 581.982C803.041 531.902 751.195 490.881 726.07 470.94C705.844 454.931 684.023 437.554 668.868 444.732C647.389 454.931 650.352 509.17 663.114 546.487C676.332 585.344 712.51 642.26 749.942 635.651C773.073 631.549 789.652 604.373 793.811 581.982H793.754Z" fill="#E28300" stroke="#1A1A1A" stroke-width="1.42434" stroke-miterlimit="10"/>
<path d="M932.94 630.586C949.804 582.5 1015.21 572.7 1046.89 567.914C1072.41 564.097 1099.99 559.824 1109.56 573.612C1123.12 593.097 1093.55 638.676 1063.98 664.77C1033.16 691.889 973.505 723.282 944.335 698.954C926.274 683.913 925.42 652.065 932.94 630.586Z" fill="#E28300" stroke="#1A1A1A" stroke-width="1.42434" stroke-miterlimit="10"/>
<path d="M943.773 634.176C953.971 605.12 993.511 599.194 1012.65 596.289C1028.09 593.953 1044.73 591.389 1050.54 599.707C1058.75 611.501 1040.86 639.076 1022.97 654.801C1004.34 671.209 968.272 690.181 950.667 675.482C939.785 666.366 939.215 647.166 943.773 634.176Z" fill="#C96600"/>
<path d="M777.632 593.952C786.406 564.439 757.862 536.465 744.018 522.906C732.908 511.967 720.887 500.116 711.315 503.477C697.755 508.206 696.103 541.023 701.345 564.268C706.814 588.482 724.932 624.945 747.835 623.407C762.022 622.439 773.701 607.17 777.632 593.952Z" fill="#C96600"/>
<path d="M847.484 1160.44C830.335 1285.21 828.683 1291.54 824.695 1302.87C824.695 1302.87 814.097 1349.65 773.418 1433.91C770.342 1440.29 764.075 1452.83 750.629 1462.4C720.433 1483.82 682.032 1470.15 676.563 1468.1C668.188 1464.96 654.742 1459.95 653.773 1451.01C652.748 1441.66 665.852 1432.15 676.563 1428.22C694.567 1421.61 705.506 1430.72 716.444 1428.22C739.177 1422.97 746.811 1370.96 750.629 1319.97C760.827 1184.2 765.955 1116.34 727.839 1057.89C717.527 1042.11 706.816 1030.65 710.747 1018.01C720.774 985.758 818.2 969.122 853.181 1006.61C866 1020.34 864.633 1035.72 847.484 1160.44Z" fill="#F2F2F2" stroke="#1A1A1A" stroke-width="1.42434" stroke-miterlimit="10"/>
<path d="M948.669 727.782C921.207 684.539 783.844 701.802 760.655 756.269C759.573 758.89 758.377 771.025 755.642 795.125C752.166 825.663 752.451 831.588 749.261 847.427C746.811 859.79 744.247 872.438 737.866 887.309C727.44 911.522 717.697 916.308 709.379 932.888C696.959 957.557 700.605 982.683 703.283 1001.09C709.949 1046.95 738.151 1068.6 783.445 1132.3C830.22 1198.1 853.693 1231.03 857.511 1234.85C873.122 1250.34 946.561 1323.39 1045.52 1326.01C1129.62 1328.23 1195.36 1278.55 1199.35 1286.12C1202.6 1292.28 1150.36 1309.77 1119.59 1360.19C1080.73 1423.89 1097.26 1505.36 1102.5 1531.11C1114.01 1587.69 1131.61 1592.3 1130.98 1639.36C1130.24 1691.32 1108.08 1732.11 1102.5 1741.91C1091.1 1761.91 1078.91 1775.59 1068.31 1787.49C1035.27 1824.58 999.945 1855.86 999.945 1855.86C988.493 1866 980.688 1872.33 977.155 1884.35C972.655 1899.5 975.959 1920.13 988.55 1929.93C1007.69 1944.91 1042.96 1930.61 1062.62 1912.83C1089.45 1888.56 1075.49 1868.51 1102.5 1833.07C1125.29 1803.16 1160.15 1784.76 1176.56 1776.1C1204.99 1761.06 1221.97 1758.55 1227.84 1741.91C1228.87 1739.01 1230.46 1733.08 1222.14 1696.33C1214.79 1663.92 1212.51 1663.8 1210.75 1650.76C1209.49 1641.58 1204.88 1607.11 1222.14 1582.39C1234.05 1565.35 1247.21 1565.98 1284.81 1548.2C1306.29 1538.06 1340.36 1521.94 1358.88 1502.62C1393.63 1466.39 1386.28 1405.94 1381.67 1371.58C1378.36 1347.03 1360.87 1236.56 1233.54 1098.11C1127.96 983.309 1045.52 915.795 1045.52 915.795C1008.49 886.454 951.973 845.262 948.669 784.756C947.073 756.041 958.639 743.45 948.669 727.782Z" fill="#F2F2F2" stroke="#1A1A1A" stroke-width="1.42434" stroke-miterlimit="10"/>
<path d="M841.791 567.914C814.956 564.78 794.446 562.388 773.422 573.611C735.25 593.951 726.875 643.233 722.146 670.467C719.639 684.938 715.195 710.69 723.57 740.658C729.609 762.308 735.877 762.935 740.662 786.237C746.132 812.787 740.434 823.726 750.633 841.388C758.438 855.004 769.719 861.898 773.422 864.177C795.129 877.281 823.103 877.167 843.215 866C849.14 862.753 856.661 854.321 871.702 837.513C891.928 814.895 892.383 810.907 905.886 797.632C927.707 776.153 930.1 783.275 940.07 769.145C954.2 749.147 959.498 720.717 961.435 710.348C961.549 709.778 961.948 707.443 962.29 705.391C964.911 688.755 969.013 643.461 938.646 607.796C911.583 576.061 873.297 571.56 841.791 567.914Z" fill="#F2F2F2" stroke="#1A1A1A" stroke-width="1.42434" stroke-miterlimit="10"/>
<path d="M727.831 636.283C733.699 618.735 744.581 587.685 773.41 573.612C779.392 570.707 784.064 569.51 790.502 567.915C832.548 557.489 870.379 569.624 881.66 573.612C904.62 581.759 931.91 591.502 950.028 619.191C971.906 652.635 965.297 689.155 961.423 710.349C957.093 734.05 944.616 771.995 927.239 773.02C917.895 773.59 914.249 762.993 898.752 761.625C883.255 760.258 878.583 769.887 870.265 767.323C853.287 762.138 851.862 711.204 858.87 676.165C862.972 655.597 865.536 642.721 875.962 630.586C880.235 625.629 886.844 619.533 893.054 607.796C896.074 602.156 902.854 589.223 898.752 585.007C895.049 581.247 883.54 585.349 875.962 590.704C865.251 598.339 862.118 608.765 858.87 607.796C855.794 606.885 858.984 597.712 853.173 590.704C849.413 586.203 842.405 583.07 836.081 585.007C828.617 587.286 824.914 595.718 824.686 602.099C824.344 610.816 830.611 613.836 836.081 624.889C841.949 636.682 841.835 647.507 841.778 659.073C841.664 672.633 841.55 693.257 830.383 698.954C822.065 703.227 815.798 694.966 807.594 698.954C793.635 705.791 800.757 735.076 790.502 738.836C779.905 742.767 766.516 713.312 750.62 716.046C736.149 718.553 733.87 745.16 727.831 744.533C719.285 743.622 710.112 689.212 727.831 636.283Z" fill="#E28300" stroke="#1A1A1A" stroke-width="1.42434" stroke-miterlimit="10"/>
<path d="M790.504 664.767C782.3 657.418 769.196 657.702 762.017 664.767C752.502 674.111 755.636 693.083 767.714 698.951C777.742 703.794 791.871 698.667 796.201 687.557C799.278 679.637 796.714 670.351 790.504 664.767Z" fill="#1A1A1A"/>
<path d="M910.147 693.255C900.747 686.988 887.016 689.665 881.66 698.952C875.735 709.207 882.458 723.223 893.055 727.439C900.519 730.402 910.546 728.749 915.845 721.742C922.34 713.139 919.548 699.522 910.147 693.255Z" fill="#1A1A1A"/>
<path d="M1063.99 961.031C1048.43 966.329 1040.86 999.887 1052.59 1018C1056.92 1024.67 1065.3 1031.39 1069.68 1029.4C1074.98 1027.01 1071.85 1013.33 1075.38 1012.31C1080.85 1010.77 1092.87 1042.28 1098.17 1040.79C1102.22 1039.65 1098.17 1020.17 1103.87 1018C1109.22 1016.01 1118.23 1030.94 1120.96 1029.4C1123.13 1028.2 1120.5 1017.43 1115.26 1006.61C1105.81 987.068 1081.76 954.934 1063.99 961.031Z" fill="#E28300" stroke="#1A1A1A" stroke-width="1.42434" stroke-miterlimit="10"/>
<path d="M824.691 807.204C820.532 804.982 817.911 808.115 807.599 807.204C794.096 806.007 790.849 799.911 784.81 801.507C774.725 804.184 765.894 825.834 773.415 841.388C782.018 859.221 810.562 865.545 824.691 852.783C838.65 840.192 834.605 812.502 824.691 807.204Z" fill="#1A1A1A"/>
<path d="M767.717 670.466C766.35 669.042 763.615 669.327 762.02 670.466C758.43 673.03 759.684 681.12 762.02 681.861C763.786 682.431 766.635 679.126 767.717 676.164C768.173 675.024 769.255 672.062 767.717 670.466Z" fill="#F2F2F2" stroke="#1A1A1A" stroke-width="1.42434" stroke-miterlimit="10"/>
<path d="M890.616 697.187C889.248 695.763 886.513 696.048 884.918 697.187C881.329 699.751 882.582 707.841 884.918 708.582C886.684 709.152 889.533 705.847 890.616 702.884C891.071 701.745 892.154 698.782 890.616 697.187Z" fill="#F2F2F2" stroke="#1A1A1A" stroke-width="1.42434" stroke-miterlimit="10"/>
<path d="M823.889 833.296C818.591 820.021 813.919 826.117 811.526 835.973C810.842 839.335 810.5 843.095 810.044 847.425L809.532 847.653C806.569 840.303 805.658 831.416 810.215 824.465C812.38 820.875 817.736 819.109 821.097 822.129C824.288 824.978 824.915 829.478 824.459 833.353H823.889V833.296Z" fill="#F2F2F2"/>
<path d="M783.327 827.83C780.478 824.184 783.954 817.461 790.107 817.176C808.794 817.916 804.122 845.207 787.828 844.865L787.543 844.352C793.297 841.333 797.969 834.496 796.431 827.887C795.804 824.753 793.07 821.905 789.822 821.677C786.689 821.392 783.327 824.411 783.84 827.716L783.27 827.83H783.327Z" fill="#F2F2F2"/>
<path d="M518.931 651.547C552.761 733.814 673.684 859.778 741.3 909.163C733.318 922.528 720.486 963.792 733.016 1021.92C522.756 917.444 383.444 540.724 399.016 510.682C414.588 480.641 453.454 532.426 456.117 503.914C458.779 475.402 466.26 479.047 483.672 481.515C501.083 483.983 474.5 543.5 518.931 651.547Z" fill="#F2F2F2" stroke="black" stroke-width="1.42"/>
<path d="M1164.44 665.546C1129.05 747.158 1009.68 873.778 942.066 923.162C950.048 936.528 962.88 977.791 950.35 1035.92C1160.61 931.444 1299.92 554.723 1284.35 524.682C1268.78 494.64 1229.91 546.425 1227.25 517.914C1224.59 489.402 1221.41 491.531 1204 493.999C1186.59 496.467 1218 541.999 1164.44 665.546Z" fill="#F2F2F2" stroke="black" stroke-width="1.42"/>
<rect x="924" y="887" width="81" height="107" fill="#F2F2F2"/>
<rect x="950" y="934" width="81" height="107" fill="#F2F2F2"/>
<path d="M929.5 523.5C736.7 495.1 472.833 564.333 365 602.5V262C481.667 234.333 757.9 179 929.5 179C1101.1 179 1260.67 234.333 1319 262V623C1269.5 601.667 1122.3 551.9 929.5 523.5Z" fill="#FFFBF3" stroke="black" stroke-width="1.42"/>
<path d="M476.877 302.913C475.399 298.896 473.699 294.581 471.404 290.679C470.318 288.832 468.305 288.016 466.285 287.778C457.569 286.75 449.747 292.765 442.619 298.235C435.092 304.011 428.351 309.839 424.086 317.306C419.157 325.933 416.035 336.234 414.7 345.273C413.288 354.836 409.93 366.638 406.755 378.832C403.706 390.537 401.052 403.579 399.811 433.635C399.289 446.269 399.522 454.208 402.077 462.145C404.655 470.152 403.811 479.265 406.746 487.688C409.646 496.012 417.535 500.909 425.872 503.579C433.811 505.496 440.468 506.681 445.358 506.68C447.696 506.679 449.743 506.676 455.836 503.091" stroke="#EF8C62" stroke-width="10" stroke-linecap="round"/>
<path d="M552.357 494.9C547.861 494.9 534.503 493.853 525.619 491.533C517.677 489.46 517.646 478.221 516.661 461.57C515.81 447.185 518.427 437.53 517.394 424.912C515.389 400.434 514.723 391.408 513.21 382.883C511.54 373.474 511.085 363.099 511 337.53C510.96 325.229 514.205 316.702 516.335 308.165C519.095 297.108 528.569 287.185 537.742 282.382C545.047 278.557 553.046 283.548 556.954 286.785C564.316 292.885 566.432 304.242 568.252 326.219C569.583 342.301 568.721 372.595 568.909 391.758C569.357 437.414 569.659 469.428 567.343 479.915C566.348 482.16 564.937 484.472 563.768 486.6C562.598 488.727 561.711 490.601 558.558 495.188" stroke="#EF8C62" stroke-width="10" stroke-linecap="round"/>
<path d="M634.558 478.793C632.708 474.139 630.513 463.655 629.904 454.617C629.339 446.24 625.402 437.737 623.912 429.386C622.354 420.659 621.716 410.9 620.516 381.513C619.454 355.508 620.075 318.308 621.978 307.24C623.617 297.712 623.957 286.557 624.652 279.585C624.861 277.482 626.907 278.786 628.319 280.138C634.152 285.723 638.487 294.269 644.256 303.568C653.928 319.158 652.172 335.461 657.872 370.539C662.073 396.394 663.338 408.782 664.257 420.142C665.076 430.273 668.847 443.452 670.745 453.381C671.604 457.871 675.198 461.761 676.764 464.053C681.351 470.77 680.638 445.031 681.46 435.33C682.658 421.191 683.43 399.686 683.488 374.036C683.545 349.164 682.624 314.496 684.479 300.839C684.671 294.864 684.671 285.145 684.93 279.149C685.19 273.153 685.708 271.174 686.235 266" stroke="#EF8C62" stroke-width="10" stroke-linecap="round"/>
<path d="M787.176 241.447C785.581 239.289 778.854 234.792 769.768 235.007C760.305 235.232 753.781 244.125 745.833 252.629C738.494 260.481 735.263 270.006 732.777 278.304C729.64 288.773 730.027 303.423 729.481 336.214C729.032 363.165 728.129 376.816 728 407.329C727.947 419.962 734.284 429.403 740.118 440.947C742.246 445.159 745.323 449.044 749.138 452.799C752.353 455.964 756.907 456.438 760.868 456.419C768.802 456.38 774.824 447.982 781.99 442.099C784.991 438.51 787.674 434.487 789.941 430.422C790.905 428.416 791.491 426.525 792.095 420.993" stroke="#EF8C62" stroke-width="10" stroke-linecap="round"/>
<path d="M763.287 354.068C766.289 354.068 776.834 353.317 794.848 352.538C798.585 352.146 800.364 351.362 802.229 350.677C804.095 349.993 805.994 349.432 809.278 348.854" stroke="#EF8C62" stroke-width="10" stroke-linecap="round"/>
<path d="M791.054 351.746C790.906 358.007 791.723 371.958 793.547 380.449C796.089 392.288 793.621 407.666 793.237 435.267C793.455 445.74 793.898 452.035 794.707 456.73C795.224 458.992 795.955 461.011 796.709 463.092" stroke="#EF8C62" stroke-width="10" stroke-linecap="round"/>
<path d="M854.332 441.888C853.997 438.83 853.315 389.084 851.885 357.909C851.218 343.359 848.503 330.832 848.736 320.745C848.965 310.799 848.624 300.158 847.644 291.44C846.638 282.493 844.738 265.773 847.232 252.256C848.856 243.456 856.981 237.433 864.254 232.744C868.461 230.031 874.078 231.068 878.225 231.971C886.301 233.73 887.019 248.887 890.487 262.471C897.573 290.224 887.275 298.664 883.934 306.483C880.594 314.299 875.612 321.542 869.048 331.656C863.832 339.692 858.58 345.889 856.616 353.417C854.131 362.947 869.503 372.676 876.697 386.168C884.027 399.915 889.806 408.445 891.911 416.397C895.815 424.567 899.036 430.318 900.652 434.837C901.604 436.922 902.824 438.583 906.297 442.95" stroke="#EF8C62" stroke-width="10" stroke-linecap="round"/>
<path d="M941 450.011C941.261 446.805 943.523 430.916 945.365 390.619C946.025 376.163 945 350.191 945.932 307.221C946.255 292.359 953.285 271.977 955.862 257.156C957.366 248.509 959.324 239.804 963.472 231.882C964.535 229.851 966.689 228.66 969.05 229.086C980.508 231.155 985.984 242.876 991.432 252.502C997.032 262.395 997.144 282.219 999.027 300.975C1004.36 354.121 1005.9 376.327 1006.41 394.537C1007.59 420.759 1007.82 459.415 1007.22 463.472C1007.07 465.511 1007.21 467.507 1007.36 469.564" stroke="#EF8C62" stroke-width="10" stroke-linecap="round"/>
<path d="M952.781 360.465C954.189 360.465 968.606 360.465 990.155 361.05C998.012 361.635 999.62 362.804 1001.39 363.666C1003.15 364.528 1005.02 365.047 1007.4 365.581" stroke="#EF8C62" stroke-width="10" stroke-linecap="round"/>
<path d="M1042 246C1047.55 247.142 1065.03 251.045 1080.19 253.526C1085.23 253.773 1093.38 253.773 1098.72 254.065C1104.07 254.356 1106.35 254.94 1110.03 255.982" stroke="#EF8C62" stroke-width="10" stroke-linecap="round"/>
<path d="M1078.64 254.73C1078.34 275.648 1079.15 319.815 1079.33 340.497C1079.8 396.482 1077.96 409.318 1076.41 420.587C1075.45 434.244 1074.89 450.637 1074.03 457.646C1073.74 462.42 1073.74 469.667 1073.74 477.133" stroke="#EF8C62" stroke-width="10" stroke-linecap="round"/>
<path d="M1206.38 300.464C1204.66 296.252 1198.27 286.026 1189.2 276.073C1184.82 271.275 1180.95 267.924 1177.04 266.409C1174.95 265.597 1172.21 266.084 1170.3 267.082C1162.88 270.953 1160.32 280.936 1158.53 289.626C1156.53 299.337 1155.24 310.273 1155.86 321.462C1156.35 330.234 1159.35 339.795 1162.22 348.81C1165.57 359.334 1170.05 367.084 1172.75 375.049C1175.4 382.838 1176.15 391.239 1178.57 403.658C1181.23 417.267 1185.62 426.56 1187.14 435.134C1188.99 445.525 1189.71 456.422 1190.79 464.876C1191.9 473.568 1194.07 482.32 1192.18 491.516C1191.14 496.563 1187.46 500.701 1184 504.197C1180.79 507.444 1176.44 508.861 1171.91 509.201C1162.72 509.891 1153.6 505.31 1146.62 499.748C1141 492.386 1136.02 486.051 1134.03 482.422C1133.31 480.36 1133.15 477.847 1133 475.259" stroke="#EF8C62" stroke-width="10" stroke-linecap="round"/>
<path d="M1263.61 290C1266.42 298.375 1268.3 307.277 1269.66 315.813C1271.27 325.879 1268.82 338.796 1264.85 353.955C1261.56 366.502 1264.04 382.825 1263.47 394.97C1260.46 407.793 1259.98 422.961 1259.24 429.314C1258.99 433.142 1258.99 438.197 1257.41 448.118" stroke="#EF8C62" stroke-width="10" stroke-linecap="round"/>
<path d="M1250.14 502.238C1250.43 502.529 1252.12 503.969 1254.6 506.921C1257.09 509.876 1255.85 514.631 1254.49 517.258C1253.92 518.356 1251.61 517.101 1250.23 515.749C1248.85 514.397 1247.96 512.506 1248 510.497C1248.04 508.488 1249.04 506.419 1250.41 505.831C1251.79 505.242 1253.51 506.196 1254.11 507.699C1254.7 509.201 1254.11 511.223 1250.81 509.366" stroke="#EF8C62" stroke-width="10" stroke-linecap="round"/>
<rect x="694" y="901" width="81" height="107" fill="#F2F2F2"/>
</svg>
