<svg width="1711" height="1046" viewBox="0 0 1711 1046" fill="none" xmlns="http://www.w3.org/2000/svg">
<path d="M736.191 539.777C744.805 493.329 696.718 455.283 673.415 436.788C654.656 421.94 634.417 405.823 620.361 412.481C600.44 421.94 603.188 472.245 615.024 506.857C627.284 542.895 660.838 595.684 695.556 589.555C717.01 585.75 732.387 560.544 736.244 539.777H736.191Z" fill="#E28300" stroke="#1A1A1A" stroke-width="1.32105" stroke-miterlimit="10"/>
<path d="M865.287 584.856C880.928 540.257 941.591 531.168 970.971 526.729C994.644 523.189 1020.22 519.226 1029.1 532.014C1041.67 550.086 1014.25 592.359 986.823 616.561C958.236 641.714 902.91 670.83 875.855 648.266C859.104 634.316 858.311 604.777 865.287 584.856Z" fill="#E28300" stroke="#1A1A1A" stroke-width="1.32105" stroke-miterlimit="10"/>
<path d="M875.334 588.186C884.793 561.237 921.465 555.741 939.22 553.046C953.54 550.88 968.97 548.502 974.36 556.217C981.969 567.155 965.377 592.731 948.784 607.315C931.505 622.534 898.056 640.13 881.728 626.497C871.635 618.042 871.106 600.234 875.334 588.186Z" fill="#C96600"/>
<path d="M721.242 550.88C729.38 523.508 702.906 497.562 690.065 484.986C679.761 474.84 668.611 463.849 659.734 466.967C647.157 471.353 645.625 501.79 650.486 523.349C655.559 545.807 672.363 579.626 693.605 578.199C706.763 577.301 717.596 563.139 721.242 550.88Z" fill="#C96600"/>
<path d="M786.028 1076.29C770.123 1192.01 768.59 1197.88 764.891 1208.39C764.891 1208.39 755.063 1251.78 717.333 1329.93C714.48 1335.85 708.667 1347.47 696.197 1356.35C668.19 1376.22 632.575 1363.54 627.502 1361.63C619.734 1358.73 607.263 1354.08 606.365 1345.78C605.414 1337.12 617.568 1328.29 627.502 1324.65C644.2 1318.52 654.346 1326.97 664.491 1324.65C685.575 1319.78 692.656 1271.54 696.197 1224.25C705.655 1098.32 710.411 1035.39 675.06 981.172C665.495 966.534 655.561 955.913 659.207 944.182C668.507 914.274 758.867 898.844 791.312 933.614C803.202 946.349 801.934 960.616 786.028 1076.29Z" fill="#F2F2F2" stroke="#1A1A1A" stroke-width="1.32105" stroke-miterlimit="10"/>
<path d="M879.873 675.005C854.403 634.898 727.001 650.909 705.494 701.426C704.49 703.857 703.38 715.112 700.844 737.465C697.621 765.788 697.885 771.284 694.926 785.974C692.653 797.44 690.276 809.171 684.357 822.963C674.687 845.421 665.651 849.86 657.936 865.237C646.417 888.117 649.799 911.421 652.282 928.489C658.465 971.027 684.621 991.107 726.631 1050.18C770.014 1111.22 791.785 1141.76 795.326 1145.3C809.804 1159.67 877.918 1227.42 969.705 1229.85C1047.7 1231.91 1108.68 1185.83 1112.38 1192.86C1115.39 1198.56 1066.93 1214.79 1038.4 1261.55C1002.36 1320.63 1017.69 1396.19 1022.55 1420.08C1033.22 1472.55 1049.55 1476.83 1048.97 1520.48C1048.28 1568.67 1027.73 1606.51 1022.55 1615.59C1011.98 1634.14 1000.67 1646.82 990.841 1657.87C960.193 1692.27 927.431 1721.28 927.431 1721.28C916.81 1730.68 909.57 1736.55 906.294 1747.7C902.12 1761.76 905.184 1780.88 916.863 1789.97C934.617 1803.87 967.327 1790.61 985.557 1774.12C1010.45 1751.61 997.5 1733.01 1022.55 1700.14C1043.68 1672.4 1076.02 1655.33 1091.24 1647.3C1117.61 1633.35 1133.36 1631.02 1138.8 1615.59C1139.75 1612.9 1141.23 1607.4 1133.52 1573.32C1126.7 1543.25 1124.58 1543.15 1122.95 1531.05C1121.78 1522.54 1117.5 1490.57 1133.52 1467.64C1144.56 1451.84 1156.77 1452.42 1191.64 1435.93C1211.56 1426.53 1243.16 1411.57 1260.34 1393.66C1292.57 1360.05 1285.75 1303.98 1281.47 1272.12C1278.41 1249.35 1262.19 1146.89 1144.08 1018.48C1046.17 912.002 969.705 849.384 969.705 849.384C935.357 822.171 882.938 783.966 879.873 727.847C878.393 701.215 889.12 689.537 879.873 675.005Z" fill="#F2F2F2" stroke="#1A1A1A" stroke-width="1.32105" stroke-miterlimit="10"/>
<mask id="mask0_1110_3414" style="mask-type:luminance" maskUnits="userSpaceOnUse" x="647" y="652" width="636" height="1144">
<path d="M877.439 674.687C851.97 634.58 724.567 650.591 703.061 701.108C702.057 703.539 700.947 714.794 698.41 737.146C695.187 765.47 695.451 770.965 692.492 785.655C690.22 797.122 687.842 808.853 681.924 822.645C672.254 845.103 663.218 849.541 655.503 864.918C643.983 887.799 647.365 911.102 649.849 928.17C656.031 970.708 682.188 990.788 724.197 1049.87C767.581 1110.9 789.352 1141.44 792.892 1144.98C807.371 1159.35 875.484 1227.1 967.271 1229.53C1045.27 1231.59 1106.25 1185.51 1109.94 1192.54C1112.96 1198.25 1064.5 1214.47 1035.97 1261.23C999.927 1320.31 1015.25 1395.88 1020.11 1419.76C1030.79 1472.23 1047.12 1476.51 1046.53 1520.16C1045.85 1568.35 1025.29 1606.19 1020.11 1615.28C1009.54 1633.82 998.237 1646.51 988.408 1657.55C957.759 1691.95 924.997 1720.96 924.997 1720.96C914.376 1730.37 907.137 1736.23 903.861 1747.38C899.686 1761.44 902.751 1780.57 914.429 1789.66C932.184 1803.55 964.893 1790.29 983.124 1773.8C1008.01 1751.29 995.066 1732.69 1020.11 1699.82C1041.25 1672.08 1073.59 1655.01 1088.81 1646.98C1115.18 1633.03 1130.92 1630.71 1136.37 1615.28C1137.32 1612.58 1138.8 1607.09 1131.08 1573C1124.26 1542.94 1122.15 1542.83 1120.51 1530.73C1119.35 1522.22 1115.07 1490.25 1131.08 1467.32C1142.13 1451.52 1154.33 1452.1 1189.21 1435.61C1209.13 1426.21 1240.73 1411.25 1257.9 1393.34C1290.14 1359.73 1283.32 1303.67 1279.04 1271.8C1275.97 1249.03 1259.75 1146.57 1141.65 1018.16C1043.73 911.684 967.271 849.066 967.271 849.066C932.924 821.852 880.504 783.647 877.439 727.529C875.96 700.897 886.687 689.218 877.439 674.687Z" fill="white"/>
</mask>
<g mask="url(#mask0_1110_3414)">
<path d="M1131.09 991.741C1129.66 999.931 1116.5 998.927 1109.95 1012.88C1104.98 1023.45 1108.36 1032.85 1104.66 1034.01C1100.81 1035.23 1094.41 1026.14 1088.81 1018.16C1081.63 1007.96 1082.68 1006.27 1078.24 1002.31C1068.89 994.066 1057.48 995.651 1057.11 991.741C1056.74 987.883 1067.83 985.611 1067.68 981.172C1067.46 975.994 1052.03 974.778 1051.82 970.604C1051.61 966.324 1067.2 959.349 1083.53 960.035C1108.52 961.039 1133.09 979.904 1131.09 991.741Z" fill="#E28300" stroke="#1A1A1A" stroke-width="1.32105" stroke-miterlimit="10"/>
</g>
<path d="M780.746 526.729C755.857 523.822 736.834 521.603 717.335 532.013C681.931 550.878 674.163 596.586 669.777 621.844C667.452 635.266 663.33 659.151 671.098 686.946C676.699 707.026 682.512 707.607 686.951 729.22C692.024 753.844 686.739 763.99 696.198 780.371C703.438 793 713.9 799.394 717.335 801.508C737.468 813.661 763.413 813.556 782.067 803.199C787.562 800.187 794.537 792.366 808.488 776.778C827.247 755.799 827.669 752.1 840.193 739.788C860.431 719.867 862.651 726.472 871.898 713.367C885.003 694.819 889.917 668.451 891.714 658.834C891.82 658.306 892.19 656.139 892.507 654.237C894.937 638.807 898.742 596.797 870.577 563.718C845.477 534.285 809.967 530.111 780.746 526.729Z" fill="#F2F2F2" stroke="#1A1A1A" stroke-width="1.32105" stroke-miterlimit="10"/>
<path d="M675.049 590.141C680.492 573.866 690.585 545.067 717.323 532.015C722.871 529.32 727.204 528.21 733.175 526.731C772.173 517.061 807.26 528.316 817.723 532.015C839.018 539.571 864.329 548.607 881.133 574.289C901.425 605.307 895.295 639.179 891.702 658.836C887.686 680.818 876.113 716.011 859.996 716.962C851.33 717.491 847.948 707.662 833.575 706.394C819.202 705.126 814.869 714.056 807.154 711.678C791.407 706.87 790.086 659.629 796.586 627.131C800.391 608.055 802.768 596.112 812.439 584.857C816.402 580.26 822.531 574.606 828.291 563.72C831.092 558.489 837.38 546.494 833.575 542.583C830.141 539.096 819.467 542.9 812.439 547.868C802.504 554.948 799.598 564.619 796.586 563.72C793.732 562.875 796.692 554.367 791.302 547.868C787.814 543.693 781.315 540.787 775.449 542.583C768.527 544.697 765.092 552.518 764.881 558.436C764.564 566.521 770.376 569.322 775.449 579.573C780.892 590.511 780.786 600.551 780.733 611.278C780.628 623.855 780.522 642.983 770.165 648.268C762.45 652.231 756.637 644.569 749.028 648.268C736.082 654.609 742.687 681.77 733.175 685.257C723.347 688.903 710.929 661.584 696.186 664.12C682.764 666.445 680.65 691.123 675.049 690.541C667.123 689.696 658.615 639.232 675.049 590.141Z" fill="#E28300" stroke="#1A1A1A" stroke-width="1.32105" stroke-miterlimit="10"/>
<path d="M733.18 616.559C725.57 609.742 713.417 610.006 706.759 616.559C697.934 625.225 700.84 642.821 712.043 648.264C721.343 652.756 734.448 648 738.464 637.696C741.317 630.351 738.939 621.737 733.18 616.559Z" fill="#1A1A1A"/>
<path d="M844.146 642.981C835.427 637.168 822.692 639.652 817.725 648.265C812.229 657.777 818.464 670.776 828.293 674.686C835.215 677.434 844.516 675.901 849.43 669.402C855.454 661.423 852.865 648.793 844.146 642.981Z" fill="#1A1A1A"/>
<path d="M986.83 891.339C972.404 896.253 965.376 927.377 976.261 944.181C980.277 950.364 988.045 956.599 992.114 954.749C997.028 952.53 994.122 939.848 997.398 938.897C1002.47 937.47 1013.62 966.692 1018.54 965.318C1022.29 964.261 1018.54 946.189 1023.82 944.181C1028.79 942.332 1037.14 956.176 1039.67 954.749C1041.68 953.64 1039.25 943.653 1034.39 933.613C1025.62 915.488 1003.32 885.685 986.83 891.339Z" fill="#E28300" stroke="#1A1A1A" stroke-width="1.32105" stroke-miterlimit="10"/>
<path d="M764.886 748.668C761.028 746.607 758.598 749.514 749.033 748.668C736.51 747.558 733.498 741.904 727.896 743.384C718.543 745.867 710.353 765.947 717.328 780.373C725.307 796.913 751.781 802.778 764.886 790.942C777.832 779.264 774.08 753.582 764.886 748.668Z" fill="#1A1A1A"/>
<path d="M712.045 621.846C710.777 620.525 708.241 620.789 706.761 621.846C703.432 624.224 704.595 631.727 706.761 632.414C708.399 632.942 711.041 629.878 712.045 627.13C712.468 626.073 713.472 623.325 712.045 621.846Z" fill="#F2F2F2" stroke="#1A1A1A" stroke-width="1.32105" stroke-miterlimit="10"/>
<path d="M826.032 646.629C824.763 645.308 822.227 645.572 820.747 646.629C817.418 649.007 818.581 656.51 820.747 657.197C822.386 657.726 825.028 654.661 826.032 651.913C826.454 650.856 827.458 648.108 826.032 646.629Z" fill="#F2F2F2" stroke="#1A1A1A" stroke-width="1.32105" stroke-miterlimit="10"/>
<path d="M764.145 772.866C759.23 760.554 754.897 766.208 752.678 775.35C752.044 778.468 751.727 781.955 751.304 785.971L750.828 786.183C748.081 779.366 747.235 771.123 751.463 764.676C753.471 761.347 758.438 759.709 761.555 762.509C764.515 765.152 765.096 769.326 764.673 772.919H764.145V772.866Z" fill="#F2F2F2"/>
<path d="M726.523 767.798C723.881 764.416 727.105 758.18 732.812 757.916C750.144 758.603 745.811 783.914 730.698 783.597L730.434 783.122C735.771 780.321 740.104 773.98 738.677 767.85C738.096 764.944 735.559 762.302 732.547 762.091C729.641 761.826 726.523 764.627 726.999 767.692L726.471 767.798H726.523Z" fill="#F2F2F2"/>
</svg>
